<svg xmlns="http://www.w3.org/2000/svg" version="1.1" xmlns:xlink="http://www.w3.org/1999/xlink" xmlns:svgjs="http://svgjs.dev/svgjs" width="1500" height="1500" viewBox="0 0 1500 1500"><rect width="1500" height="1500" fill="#ffffff"></rect><g transform="matrix(0.6666666666666666,0,0,0.6666666666666666,249.39393939393938,592.6462305231482)"><svg viewBox="0 0 396 125" data-background-color="#2d1b81" preserveAspectRatio="xMidYMid meet" height="473" width="1500" xmlns="http://www.w3.org/2000/svg" xmlns:xlink="http://www.w3.org/1999/xlink"><g id="tight-bounds" transform="matrix(1,0,0,1,0.2400000000000091,-0.12403429828810886)"><svg viewBox="0 0 395.52 125.2480685965762" height="125.2480685965762" width="395.52"><g><svg viewBox="0 0 595.9390212468162 188.71412675085386" height="125.2480685965762" width="395.52"><g transform="matrix(1,0,0,1,200.41902124681627,53.28394765653714)"><svg viewBox="0 0 395.5199999999999 82.14623143777959" height="82.14623143777959" width="395.5199999999999"><g id="textblocktransform"><svg viewBox="0 0 395.5199999999999 82.14623143777959" height="82.14623143777959" width="395.5199999999999" id="textblock"><g><svg viewBox="0 0 395.5199999999999 49.58104379929518" height="49.58104379929518" width="395.5199999999999"><g transform="matrix(1,0,0,1,0,0)"><svg width="395.5199999999999" viewBox="4.6 -37.1 297.92999999999995 37.35" height="49.58104379929518" data-palette-color="#ffabc7"><path d="M4.6 0L4.6-35 10.5-35 10.5-19.65 29.05-19.65 29.05-35 34.95-35 34.95 0 29.05 0 29.05-14.65 10.5-14.65 10.5 0 4.6 0ZM55.2-26.75L55.2-26.75Q59.3-26.75 62.42-25.05 65.55-23.35 67.3-20.33 69.05-17.3 69.05-13.3L69.05-13.3Q69.05-9.3 67.3-6.25 65.55-3.2 62.42-1.5 59.3 0.2 55.2 0.2L55.2 0.2Q51.1 0.2 47.95-1.5 44.8-3.2 43.05-6.25 41.3-9.3 41.3-13.3L41.3-13.3Q41.3-17.3 43.05-20.33 44.8-23.35 47.95-25.05 51.1-26.75 55.2-26.75ZM55.2-22.1L55.2-22.1Q52.8-22.1 50.95-20.98 49.1-19.85 48.07-17.85 47.05-15.85 47.05-13.25L47.05-13.25Q47.05-10.6 48.07-8.6 49.1-6.6 50.95-5.48 52.8-4.35 55.2-4.35L55.2-4.35Q57.6-4.35 59.42-5.48 61.25-6.6 62.27-8.6 63.3-10.6 63.3-13.25L63.3-13.25Q63.3-15.85 62.27-17.85 61.25-19.85 59.42-20.98 57.6-22.1 55.2-22.1ZM79.95-26.55L79.95-11.55Q79.95-8.45 81.6-6.68 83.25-4.9 86.15-4.9L86.15-4.9Q89.6-5 91.52-7.45 93.45-9.9 93.45-13.5L93.45-13.5 95-13.5Q95-8.6 93.65-5.6 92.3-2.6 89.82-1.23 87.35 0.15 83.95 0.2L83.95 0.2Q80.9 0.2 78.72-1.05 76.55-2.3 75.37-4.6 74.2-6.9 74.2-10.05L74.2-10.05 74.2-26.55 79.95-26.55ZM93.45 0L93.45-26.55 99.2-26.55 99.2 0 93.45 0ZM122.64-26.75L122.64-21.55Q119.79-21.7 117.72-20.58 115.64-19.45 114.52-17.45 113.39-15.45 113.39-12.85L113.39-12.85 111.79-13.05Q111.79-17.5 113.09-20.55 114.39-23.6 116.84-25.18 119.29-26.75 122.64-26.75L122.64-26.75ZM107.69 0L107.69-26.55 113.44-26.55 113.44 0 107.69 0ZM126.19-13.3L126.19-17.1 138.49-17.1 138.49-13.3 126.19-13.3ZM153.49 0L141.69-35 148.04-35 157.44-3.7 155.94-3.7 165.34-35 171.14-35 180.59-3.7 179.09-3.7 188.44-35 194.54-35 182.69 0 176.59 0 167.39-30.25 168.89-30.2 159.54 0 153.49 0ZM215.59-11.85L207.64-11.85Q204.84-11.85 203.49-11 202.14-10.15 202.14-8.2L202.14-8.2Q202.14-6.35 203.51-5.25 204.89-4.15 207.29-4.15L207.29-4.15Q209.44-4.15 211.14-4.9 212.84-5.65 213.84-6.93 214.84-8.2 214.89-9.8L214.89-9.8 215.99-4.95Q214.74-2.35 212.19-1.05 209.64 0.25 206.09 0.25L206.09 0.25Q203.24 0.25 201.14-0.85 199.04-1.95 197.89-3.83 196.74-5.7 196.74-8L196.74-8Q196.74-11.6 199.36-13.75 201.99-15.9 206.79-15.95L206.79-15.95 215.59-15.95 215.59-11.85ZM214.89 0L214.84-16.85Q214.84-19.45 213.24-20.9 211.64-22.35 208.49-22.35L208.49-22.35Q206.59-22.35 204.61-21.65 202.64-20.95 200.64-19.6L200.64-19.6 198.29-23.3Q200.14-24.45 201.79-25.2 203.44-25.95 205.31-26.35 207.19-26.75 209.74-26.75L209.74-26.75Q214.89-26.75 217.66-24.28 220.44-21.8 220.49-17.45L220.49-17.45 220.54 0 214.89 0ZM234.98-32.85L234.98-8.4Q234.98-6.25 235.73-5.48 236.48-4.7 237.83-4.7L237.83-4.7Q238.73-4.7 239.71-5 240.68-5.3 241.83-5.9L241.83-5.9 243.28-1.75Q241.73-0.8 240.08-0.28 238.43 0.25 236.73 0.25L236.73 0.25Q234.73 0.25 233.03-0.53 231.33-1.3 230.31-3 229.28-4.7 229.28-7.4L229.28-7.4 229.28-32.85 234.98-32.85ZM225.53-21.5L225.53-25.6 242.83-25.6 242.83-21.5 225.53-21.5ZM270.48-22.65L267.33-18.95Q265.93-20.4 264.03-21.2 262.13-22 259.73-22L259.73-22Q257.43-22 255.63-20.9 253.83-19.8 252.83-17.82 251.83-15.85 251.83-13.25L251.83-13.25Q251.83-10.65 252.83-8.68 253.83-6.7 255.63-5.58 257.43-4.45 259.73-4.45L259.73-4.45Q262.23-4.45 264.23-5.28 266.23-6.1 267.58-7.7L267.58-7.7 270.78-4.55Q268.98-2.3 266.11-1.05 263.23 0.2 259.48 0.2L259.48 0.2Q255.53 0.2 252.51-1.5 249.48-3.2 247.78-6.23 246.08-9.25 246.08-13.25L246.08-13.25Q246.08-17.25 247.78-20.28 249.48-23.3 252.51-25.03 255.53-26.75 259.48-26.75L259.48-26.75Q263.08-26.75 265.86-25.68 268.63-24.6 270.48-22.65L270.48-22.65ZM296.78 0L296.78-15Q296.78-18.1 295.08-19.88 293.38-21.65 290.38-21.65L290.38-21.65Q286.83-21.6 284.8-19.15 282.78-16.7 282.78-13.05L282.78-13.05 281.18-13.05Q281.18-18 282.58-21 283.98-24 286.55-25.38 289.13-26.75 292.63-26.75L292.63-26.75Q295.73-26.75 297.95-25.5 300.18-24.25 301.35-21.98 302.53-19.7 302.53-16.5L302.53-16.5 302.53 0 296.78 0ZM277.03 0L277.03-37.1 282.78-37.1 282.78 0 277.03 0Z" opacity="1" transform="matrix(1,0,0,1,0,0)" fill="#000000" class="wordmark-text-0" data-fill-palette-color="primary" id="text-0"></path></svg></g></svg></g><g transform="matrix(1,0,0,1,0,61.285938295257594)"><svg viewBox="0 0 232.20979199999994 20.86029314252199" height="20.86029314252199" width="232.20979199999994"><g transform="matrix(1,0,0,1,0,0)"><svg width="232.20979199999994" viewBox="0.9 -35.7 511.4200000000001 45.95" height="20.86029314252199" data-palette-color="#ffabc7"><path d="M1.4-3.35L1.4-3.35Q1.4-8.75 4.6-14.05L4.6-14.05Q0.9-16.4 0.9-21L0.9-21Q0.9-26.55 5.8-30.85L5.8-30.85Q11.3-35.7 20-35.7L20-35.7Q24-35.7 28.6-34.55L28.6-34.55Q29.65-34.3 37.55-30.68 45.45-27.05 48.9-27.05L48.9-27.05Q51.2-27.05 52.35-28.35L52.35-28.35Q52.95-29 52.95-29.75 52.95-30.5 52.3-31.1L52.3-31.1Q51.95-31.6 51.95-31.75 51.95-31.9 52.23-31.9 52.5-31.9 53.18-31.03 53.85-30.15 53.85-28.98 53.85-27.8 52.28-26.73 50.7-25.65 48.3-25.65L48.3-25.65Q44.55-25.65 36.65-29.28 28.75-32.9 26.73-33.3 24.7-33.7 22.1-33.7L22.1-33.7Q11.75-33.7 5.8-27L5.8-27Q5.1-26.25 4.15-23.98 3.2-21.7 3.2-19.6L3.2-19.6Q3.2-16.7 5.25-15.1L5.25-15.1Q7.85-18.9 11.4-21.15 14.95-23.4 18.6-23.4L18.6-23.4Q23.1-23.4 23.1-19.9L23.1-19.9Q23.1-15.7 18.18-10.78 13.25-5.85 9.05-5.85L9.05-5.85Q6.35-5.85 6.35-8.15L6.35-8.15Q6.35-8.95 6.78-9.55 7.2-10.15 7.8-10L7.8-10 7.7-8.85Q7.7-8.1 10-8.1L10-8.1Q13.4-8.1 17.18-11.6 20.95-15.1 21.75-18.45L21.75-18.45Q21.95-19.2 21.95-19.8L21.95-19.8Q21.95-22.05 19.07-22.05 16.2-22.05 13.13-19.85 10.05-17.65 7.35-14.05L7.35-14.05Q7.55-13.95 8.9-13.65L8.9-13.65 11.9-13.55Q14.1-13.45 14.1-13.05L14.1-13.05Q14.1-12.35 12-12.35L12-12.35Q11.85-12.35 11.7-12.35L11.7-12.35Q8.65-12.35 6.7-13.1L6.7-13.1Q2.85-7.2 2.85-2.25L2.85-2.25Q2.85 4.15 7.8 4.15L7.8 4.15Q13.4 4.15 19.45-3.65L19.45-3.65 29.25-18.25Q34.75-26.25 38.8-26.45L38.8-26.45 40.7-26Q41.6-25.5 41.6-24.5 41.6-23.5 41.1-23.5L41.1-23.5 39.5-23.75Q36.05-23.75 30.65-16.3L30.65-16.3 20.7-2.4Q14.3 5.05 8.45 5.05L8.45 5.05Q4.45 5.05 2.93 2.9 1.4 0.75 1.4-3.35ZM46.1-10.6L46.1-10.6Q46.1-8.85 42.75-4.75L42.75-4.75Q38.8 0.1 36 0.1L36 0.1 35.2 0.1Q33.9 0.1 33.15-1.25L33.15-1.25Q32.55-2.2 32.55-3.35L32.55-3.35Q32.55-6.35 36.92-11.78 41.3-17.2 44-17.2L44-17.2Q46.55-17.2 46.55-14.5L46.55-14.5Q46.55-13.8 46.3-12.7L46.3-12.7Q46.35-12.55 47.25-12.55 48.15-12.55 50-13.5L50-13.5Q49.95-12.65 46.05-11.05L46.05-11.05Q46.1-10.85 46.1-10.6ZM42.85-13.2L42.85-13.2Q41.15-13.2 38.02-9.2 34.9-5.2 34.9-3.3 34.9-1.4 36.1-1.4L36.1-1.4Q38.25-1.4 41.55-5.3 44.85-9.2 44.85-10.9L44.85-10.9Q44.05-11.35 42.85-13.2ZM67.79-1.8L66.19-0.75Q64.74 0.1 62.62 0.1 60.49 0.1 59.37-1.3 58.24-2.7 57.44-5.75L57.44-5.75Q56.54-4.85 56.19-4.85L56.19-4.85Q55.94-4.85 55.94-5.2 55.94-5.55 56.19-5.8L56.19-5.8Q57.84-7.85 61.79-11.7L61.79-11.7 68.09-17.6Q70.79-20.15 71.29-20.15L71.29-20.15Q72.89-20.15 72.89-18.95L72.89-18.95Q72.89-18.35 72.42-17.78 71.94-17.2 71.72-16.88 71.49-16.55 71.24-16.25L71.24-16.25Q70.34-14.7 69.42-9.85 68.49-5 67.99-3.1L67.99-3.1Q72.14-3.15 76.54-8.5L76.54-8.5Q77.04-9 77.29-9 77.54-9 77.54-8.68 77.54-8.35 77.09-7.8L77.09-7.8Q74.19-4.4 71.69-3.05L71.69-3.05Q70.19-2.3 67.79-1.8L67.79-1.8ZM59.44-6.3L59.44-6.3Q59.44-4.6 60.57-3.53 61.69-2.45 63.09-2.45 64.49-2.45 65.24-3L65.24-3Q66.24-3.55 67.22-7.6 68.19-11.65 68.39-14.75L68.39-14.75 68.59-16.45Q65.84-14.4 62.72-11.15 59.59-7.9 59.49-6.85L59.49-6.85Q59.44-6.55 59.44-6.3ZM78.74 0.65L78.74 0.65Q78.19 0.65 77.74 0.5L77.74 0.5Q74.54-0.4 74.54-3.1L74.54-3.1Q74.54-6.6 78.94-11.2 83.34-15.8 86.84-15.8L86.84-15.8Q87.99-15.8 88.72-15.18 89.44-14.55 89.44-13.48 89.44-12.4 88.79-11.23 88.14-10.05 86.84-10.05 85.54-10.05 85.54-10.85L85.54-10.85Q85.54-11.4 86.22-12.53 86.89-13.65 86.89-13.73 86.89-13.8 86.74-13.8L86.74-13.8Q85.34-13.65 82.92-11.8 80.49-9.95 79.59-8.7L79.59-8.7 77.64-5.85Q77.14-5.05 76.92-3.95 76.69-2.85 76.69-2.3 76.69-1.75 77.32-1.05 77.94-0.35 79.09-0.35L79.09-0.35Q81.59-0.35 85.29-3.28 88.99-6.2 90.99-8.85L90.99-8.85Q91.24-9.15 91.59-9.15 91.94-9.15 91.94-8.95 91.94-8.75 91.69-8.45L91.69-8.45Q88.94-4.8 85.12-2.08 81.29 0.65 78.74 0.65ZM102.14-10.6L102.14-10.6Q102.14-8.85 98.79-4.75L98.79-4.75Q94.84 0.1 92.04 0.1L92.04 0.1 91.24 0.1Q89.94 0.1 89.19-1.25L89.19-1.25Q88.59-2.2 88.59-3.35L88.59-3.35Q88.59-6.35 92.96-11.78 97.34-17.2 100.04-17.2L100.04-17.2Q102.59-17.2 102.59-14.5L102.59-14.5Q102.59-13.8 102.34-12.7L102.34-12.7Q102.39-12.55 103.29-12.55 104.19-12.55 106.04-13.5L106.04-13.5Q105.99-12.65 102.09-11.05L102.09-11.05Q102.14-10.85 102.14-10.6ZM98.89-13.2L98.89-13.2Q97.19-13.2 94.06-9.2 90.94-5.2 90.94-3.3 90.94-1.4 92.14-1.4L92.14-1.4Q94.29-1.4 97.59-5.3 100.89-9.2 100.89-10.9L100.89-10.9Q100.09-11.35 98.89-13.2ZM113.34 0.25L113.34 0.25Q109.59 0.25 109.59-3.9L109.59-3.9Q109.59-6 110.69-8.5 111.79-11 113.09-12.7L113.09-12.7Q112.84-12.65 112.44-12.65L112.44-12.65Q111.24-12.65 110.44-14.35L110.44-14.35 106.74-9.55Q103.64-5.7 103.14-5.7L103.14-5.7Q102.89-5.7 102.89-5.9L102.89-5.9Q102.89-6.4 103.74-7.35L103.74-7.35Q108.09-12.4 109.89-15.9L109.89-15.9Q111.04-20.25 112.79-20.25L112.79-20.25Q113.94-20.25 113.94-19.25 113.94-18.25 112.69-16.7L112.69-16.7 111.49-15.1Q111.49-14.05 113.04-14.05L113.04-14.05Q113.94-14.05 115.04-14.7L115.04-14.7 116.34-15.5Q116.44-15.55 116.84-15.55 117.24-15.55 117.69-15.05 118.14-14.55 117.99-14.15L117.99-14.15 114.54-9.8Q111.34-5.7 111.34-3.33 111.34-0.95 113.54-0.95L113.54-0.95Q115.84-0.95 119.19-3.4L119.19-3.4Q121.19-4.85 122.84-6.65L122.84-6.65Q124.39-8.45 124.54-8.45L124.54-8.45Q124.89-8.45 124.89-8.08 124.89-7.7 124.44-7.2L124.44-7.2 122.84-5.4Q121.49-4 119.84-2.7L119.84-2.7Q115.89 0.25 113.34 0.25ZM125.38 0.65L125.38 0.65Q124.83 0.65 124.38 0.5L124.38 0.5Q121.18-0.4 121.18-3.1L121.18-3.1Q121.18-6.6 125.58-11.2 129.98-15.8 133.48-15.8L133.48-15.8Q134.63-15.8 135.36-15.18 136.08-14.55 136.08-13.65L136.08-13.65Q136.08-10.85 131.86-8.3 127.63-5.75 124.98-5.75L124.98-5.75Q124.58-5.75 124.28-5.85L124.28-5.85Q123.53-4.5 123.53-3L123.53-3Q123.53-0.4 126.01-0.4 128.48-0.4 132.43-3.75L132.43-3.75Q135.48-6.2 137.63-8.95L137.63-8.95Q138.08-9.55 138.41-9.55 138.73-9.55 138.73-9.25 138.73-8.95 138.33-8.4L138.33-8.4Q135.63-4.85 131.83-2.1 128.03 0.65 125.38 0.65ZM134.83-13.75L134.83-13.75Q134.83-14.35 133.56-14.35 132.28-14.35 129.93-12.4L129.93-12.4Q126.78-9.8 125.03-6.95L125.03-6.95Q125.33-6.85 125.68-6.85L125.68-6.85Q127.58-6.85 130.76-8.88 133.93-10.9 134.73-13.3L134.73-13.3Q134.83-13.55 134.83-13.75ZM162.18-14.95L162.18-14.95 162.88-15.1Q163.43-15.1 163.93-14.65 164.43-14.2 164.43-13.95 164.43-13.7 161.33-9.13 158.23-4.55 158.23-2.75L158.23-2.75Q158.23-2.6 158.28-2.45L158.28-2.45Q158.53-1.3 159.38-1.3L159.38-1.3Q161.98-1.3 168.88-9.9L168.88-9.9Q169.03-10.1 169.23-10.1 169.43-10.1 169.43-9.73 169.43-9.35 168.98-8.75L168.98-8.75Q162.58-0.2 159.23-0.2L159.23-0.2Q158.78-0.2 158.38-0.35L158.38-0.35Q156.18-1.2 156.18-3.65L156.18-3.65Q156.18-4.5 156.38-5.35L156.38-5.35 153.28-2.35Q150.33 0.25 149 0.25 147.68 0.25 146.48-0.6L146.48-0.6Q145.13-1.6 145.13-3.25L145.13-3.25Q145.13-6.9 150.23-11.98 155.33-17.05 159.58-17.05L159.58-17.05Q161.23-17.05 161.78-15.9L161.78-15.9Q161.93-15.5 162.03-15.23 162.13-14.95 162.18-14.95ZM147.23-2.65L147.23-2.65Q147.23-0.85 148.48-0.85L148.48-0.85Q151.38-0.85 156.38-7.2L156.38-7.2 161.68-14.5Q161.28-15.2 160.38-15.2L160.38-15.2Q157.33-15.2 152.28-10.48 147.23-5.75 147.23-2.65ZM174.23-15.8L174.23-15.8Q175.58-15.8 175.58-14.75L175.58-14.75Q175.58-14.45 175.43-14.15L175.43-14.15Q170.93-7.9 170.03-4.7L170.03-4.7Q181.68-16.35 184.18-16.35L184.18-16.35Q184.43-16.4 184.63-16.4L184.63-16.4Q186.03-16.4 186.03-15.15L186.03-15.15Q186.03-14.9 185.93-14.65 185.83-14.4 183.93-11.95L183.93-11.95Q181.73-9.35 180.2-6.95 178.68-4.55 178.68-2.95 178.68-1.35 179.38-1.35L179.38-1.35Q181.58-1.35 187.03-7.4L187.03-7.4Q187.13-7.5 187.38-7.85L187.38-7.85Q188.13-8.75 188.28-8.75 188.43-8.75 188.43-8.25 188.43-7.75 187.73-6.95L187.73-6.95Q181.53 0.1 178.93 0.1L178.93 0.1Q176.48 0.1 176.48-2.6 176.48-5.3 178.48-8.8L178.48-8.8 181.68-14Q178.28-11.5 175.63-8.53 172.98-5.55 170.8-2.75 168.63 0.05 168.28 0.05L168.28 0.05Q167.53 0.05 167.1-0.58 166.68-1.2 166.68-2.13 166.68-3.05 167.33-4.6 167.98-6.15 168.98-8.35L168.98-8.35 165.98-5.2Q164.88-4.1 164.6-4.1 164.33-4.1 164.33-4.42 164.33-4.75 164.73-5.15L164.73-5.15Q166.58-7 167.93-8.7L167.93-8.7Q169.23-10.4 173.28-15.2L173.28-15.2Q173.73-15.8 174.23-15.8ZM202.72-15.15L202.72-15.15Q208.32-24.25 210.52-24.25L210.52-24.25Q210.87-24.25 211.5-24.03 212.12-23.8 212.12-23.35L212.12-23.35Q212.12-23.1 211.87-22.7L211.87-22.7Q207.87-17.8 205.92-15.35L205.92-15.35Q200.02-7.9 199.42-4.65L199.42-4.65Q199.27-3.95 199.27-3.25L199.27-3.25Q199.27-1 201.12-1L201.12-1Q204.82-1 210.77-7.85L210.77-7.85Q211.27-8.35 211.62-8.43 211.97-8.5 211.97-8.25 211.97-8 211.67-7.65L211.67-7.65Q205.87-0.7 201.37 0.1L201.37 0.1Q201.12 0.15 200.67 0.15L200.67 0.15Q199.12 0.15 198.35-0.93 197.57-2 197.57-3.25L197.57-3.25Q197.57-4.65 198.12-6.35L198.12-6.35 194.07-2.3Q191.32 0.25 189.75 0.25 188.17 0.25 187.12-0.6L187.12-0.6Q185.87-1.55 185.87-3.25L185.87-3.25Q185.87-6.9 190.97-11.98 196.07-17.05 200.32-17.05L200.32-17.05Q201.72-17.05 202.27-16.3L202.27-16.3Q202.47-16.05 202.72-15.15ZM187.97-2.65L187.97-2.65Q187.97-0.85 189.22-0.85L189.22-0.85Q191.37-0.85 196.37-6.75L196.37-6.75Q197.27-7.8 202.37-14.6L202.37-14.6Q202.02-15.2 201.17-15.2L201.17-15.2Q198.07-15.2 193.02-10.48 187.97-5.75 187.97-2.65ZM233.12-19.65L233.12-19.65Q234.62-19.65 235.67-18.65 236.72-17.65 236.72-15.85L236.72-15.85Q236.72-11.9 230.17-5.95L230.17-5.95Q224.62-0.95 221.22 0.15L221.22 0.15Q220.67 0.15 219.77-0.45 218.87-1.05 218.87-1.55L218.87-1.55Q218.87-2.65 221.27-9 223.67-15.35 224.57-16.1L224.57-16.1Q224.77-16.3 225.22-16.3 225.67-16.3 226.17-15.83 226.67-15.35 226.72-14.7L226.72-14.7Q226.72-14.65 224.24-8.9 221.77-3.15 221.92-2.05L221.92-2.05Q224.07-2.7 229.59-7.3 235.12-11.9 235.12-15.55L235.12-15.55Q235.12-17.75 232.92-18.75L232.92-18.75Q232.57-18.9 232.57-19.2L232.57-19.2Q232.57-19.65 233.12-19.65ZM245.47-20.4Q246.22-20.4 246.89-19.93 247.57-19.45 247.57-18.8 247.57-18.15 246.94-17.68 246.32-17.2 245.57-17.2 244.82-17.2 244.19-17.75 243.57-18.3 243.57-19L243.57-19Q243.57-20.4 245.47-20.4L245.47-20.4ZM236.42 0.55L236.42 0.55Q233.87 0.55 233.87-2.75L233.87-2.75Q233.87-5.45 236.82-10.23 239.77-15 241.57-15.05L241.57-15.05Q242.07-15.05 242.69-14.65 243.32-14.25 243.32-13.85L243.32-13.85Q243.07-13.5 242.72-13.08 242.37-12.65 241.97-12.15 241.57-11.65 240.87-10.73 240.17-9.8 239.52-8.95L239.52-8.95Q235.77-4.1 235.77-2.27 235.77-0.45 237.02-0.45L237.02-0.45Q238.07-0.45 239.87-1.6L239.87-1.6Q244.07-4.2 246.52-7.3L246.52-7.3Q247.42-8.45 247.74-8.45 248.07-8.45 248.07-8.05 248.07-7.65 246.92-6.45 245.77-5.25 245.09-4.55 244.42-3.85 244.17-3.63 243.92-3.4 243.24-2.78 242.57-2.15 242.22-1.9 241.87-1.65 241.22-1.15 240.57-0.65 240.07-0.43 239.57-0.2 238.92 0.1L238.92 0.1Q237.87 0.55 236.42 0.55ZM256.71-1.8L255.11-0.75Q253.66 0.1 251.54 0.1 249.41 0.1 248.29-1.3 247.16-2.7 246.36-5.75L246.36-5.75Q245.46-4.85 245.11-4.85L245.11-4.85Q244.86-4.85 244.86-5.2 244.86-5.55 245.11-5.8L245.11-5.8Q246.76-7.85 250.71-11.7L250.71-11.7 257.01-17.6Q259.71-20.15 260.21-20.15L260.21-20.15Q261.81-20.15 261.81-18.95L261.81-18.95Q261.81-18.35 261.34-17.78 260.86-17.2 260.64-16.88 260.41-16.55 260.16-16.25L260.16-16.25Q259.26-14.7 258.34-9.85 257.41-5 256.91-3.1L256.91-3.1Q261.06-3.15 265.46-8.5L265.46-8.5Q265.96-9 266.21-9 266.46-9 266.46-8.68 266.46-8.35 266.01-7.8L266.01-7.8Q263.11-4.4 260.61-3.05L260.61-3.05Q259.11-2.3 256.71-1.8L256.71-1.8ZM248.36-6.3L248.36-6.3Q248.36-4.6 249.49-3.53 250.61-2.45 252.01-2.45 253.41-2.45 254.16-3L254.16-3Q255.16-3.55 256.14-7.6 257.11-11.65 257.31-14.75L257.31-14.75 257.51-16.45Q254.76-14.4 251.64-11.15 248.51-7.9 248.41-6.85L248.41-6.85Q248.36-6.55 248.36-6.3ZM277.86 0.3L277.86 0.3Q277.61 0.35 276.79 0.35 275.96 0.35 275.14-0.3 274.31-0.95 274.31-1.98 274.31-3 274.69-4.25 275.06-5.5 275.21-6.15L275.21-6.15Q269.46 0.55 266.21 0.55L266.21 0.55Q264.16 0.55 263.96-2L263.96-2Q263.96-2.2 263.96-2.35L263.96-2.35Q263.96-4.5 266.56-8.15L266.56-8.15Q265.11-6.85 263.61-5.15L263.61-5.15Q263.41-4.95 263.11-4.95L263.11-4.95Q262.91-4.95 262.91-5.2 262.91-5.45 263.36-6.05L263.36-6.05 270.26-14.15Q271.56-15.65 272.91-15.65 274.26-15.65 274.26-14.75L274.26-14.75Q274.26-14.4 273.96-14.1L273.96-14.1Q271.96-12.25 268.94-7.95 265.91-3.65 265.91-1.6L265.91-1.6Q265.91-0.7 266.51-0.7L266.51-0.7Q268.61-0.7 272.61-4.85L272.61-4.85Q274.01-6.25 277.81-11.03 281.61-15.8 282.81-15.8L282.81-15.8Q284.61-15.8 284.61-14.4L284.61-14.4Q284.61-13.9 282.51-11.5L282.51-11.5Q279.66-8.05 278.16-5.88 276.66-3.7 276.66-2.35 276.66-1 277.41-1L277.41-1Q277.76-1 278.21-1.2L278.21-1.2Q281.66-2.7 286.46-8.2L286.46-8.2Q286.76-8.55 287.06-8.55 287.36-8.55 287.36-8.22 287.36-7.9 287.01-7.5L287.01-7.5Q284.86-5 281.96-2.48 279.06 0.05 277.86 0.3ZM301.71-14.95L301.71-14.95 302.41-15.1Q302.96-15.1 303.46-14.65 303.96-14.2 303.96-13.95 303.96-13.7 300.86-9.13 297.76-4.55 297.76-2.75L297.76-2.75Q297.76-2.6 297.81-2.45L297.81-2.45Q298.06-1.3 298.91-1.3L298.91-1.3Q301.51-1.3 308.41-9.9L308.41-9.9Q308.56-10.1 308.76-10.1 308.96-10.1 308.96-9.73 308.96-9.35 308.51-8.75L308.51-8.75Q302.11-0.2 298.76-0.2L298.76-0.2Q298.31-0.2 297.91-0.35L297.91-0.35Q295.71-1.2 295.71-3.65L295.71-3.65Q295.71-4.5 295.91-5.35L295.91-5.35 292.81-2.35Q289.86 0.25 288.53 0.25 287.21 0.25 286.01-0.6L286.01-0.6Q284.66-1.6 284.66-3.25L284.66-3.25Q284.66-6.9 289.76-11.98 294.86-17.05 299.11-17.05L299.11-17.05Q300.76-17.05 301.31-15.9L301.31-15.9Q301.46-15.5 301.56-15.23 301.66-14.95 301.71-14.95ZM286.76-2.65L286.76-2.65Q286.76-0.85 288.01-0.85L288.01-0.85Q290.91-0.85 295.91-7.2L295.91-7.2 301.21-14.5Q300.81-15.2 299.91-15.2L299.91-15.2Q296.86-15.2 291.81-10.48 286.76-5.75 286.76-2.65ZM307.66-2.5Q307.66-1 309.31-1 310.96-1 313.56-2.75 316.16-4.5 318.61-7.5L318.61-7.5Q319.21-8.3 319.56-8.3 319.91-8.3 319.91-8L319.91-8Q319.91-7.7 317.86-5.4L317.86-5.4Q312.86 0.1 309.51 0.1L309.51 0.1Q307.86 0.1 306.71-0.68 305.56-1.45 305.56-3.08 305.56-4.7 306.41-6.85L306.41-6.85Q307.86-10.25 311.06-15.4L311.06-15.4Q316.91-24.9 319.36-24.9L319.36-24.9Q319.86-24.9 320.38-24.53 320.91-24.15 320.96-23.7L320.96-23.7Q319.81-22.15 316.53-17.75 313.26-13.35 312.01-11.43 310.76-9.5 310.13-8.55 309.51-7.6 309.21-7.08 308.91-6.55 308.51-5.7L308.51-5.7Q307.66-4 307.66-2.5ZM328.7-20.4Q329.45-20.4 330.13-19.93 330.8-19.45 330.8-18.8 330.8-18.15 330.18-17.68 329.55-17.2 328.8-17.2 328.05-17.2 327.43-17.75 326.8-18.3 326.8-19L326.8-19Q326.8-20.4 328.7-20.4L328.7-20.4ZM319.65 0.55L319.65 0.55Q317.1 0.55 317.1-2.75L317.1-2.75Q317.1-5.45 320.05-10.23 323-15 324.8-15.05L324.8-15.05Q325.3-15.05 325.93-14.65 326.55-14.25 326.55-13.85L326.55-13.85Q326.3-13.5 325.95-13.08 325.6-12.65 325.2-12.15 324.8-11.65 324.1-10.73 323.4-9.8 322.75-8.95L322.75-8.95Q319-4.1 319-2.27 319-0.45 320.25-0.45L320.25-0.45Q321.3-0.45 323.1-1.6L323.1-1.6Q327.3-4.2 329.75-7.3L329.75-7.3Q330.65-8.45 330.98-8.45 331.3-8.45 331.3-8.05 331.3-7.65 330.15-6.45 329-5.25 328.33-4.55 327.65-3.85 327.4-3.63 327.15-3.4 326.48-2.78 325.8-2.15 325.45-1.9 325.1-1.65 324.45-1.15 323.8-0.65 323.3-0.43 322.8-0.2 322.15 0.1L322.15 0.1Q321.1 0.55 319.65 0.55ZM332.5-2.05L332.5-2.05Q330.5-0.65 329.65-0.65L329.65-0.65Q328.5-0.65 328.5-1.9L328.5-1.9Q328.5-2.35 328.8-3 329.1-3.65 329.4-3.65L329.4-3.65Q329.85-3.65 329.6-2.9L329.6-2.9Q329.45-2.15 330.05-2.15 330.65-2.15 331.5-2.75L331.5-2.75 329.6-4.2Q329.5-4.3 329.5-4.55 329.5-4.8 330-5.28 330.5-5.75 330.78-5.75 331.05-5.75 333.2-4.05L333.2-4.05Q339.4-11.05 342.3-13.25L342.3-13.25Q338.35-14.45 336.45-14.45L336.45-14.45Q335.9-14.45 335.4-14.38 334.9-14.3 334.33-13.78 333.75-13.25 333.75-12.6 333.75-11.95 334.3-11.53 334.85-11.1 334.85-10.85 334.85-10.6 334.48-10.6 334.1-10.6 333.25-11.6L333.25-11.6Q332.45-12.6 332.45-13.65L332.45-13.65Q332.45-15.4 335-15.95L335-15.95Q336.35-16.2 337.75-16.2 339.15-16.2 344.65-14.4L344.65-14.4Q345.35-14.8 346.15-14.8L346.15-14.8Q348.25-14.8 348.25-13.55L348.25-13.55Q348.25-13.05 347.6-12.63 346.95-12.2 346.05-12.2 345.15-12.2 344.4-12.55L344.4-12.55Q339.65-9.6 334.2-3.25L334.2-3.25 336-1.85Q338.15-0.45 341-0.45 343.85-0.45 345.2-1.35 346.55-2.25 346.55-3.65L346.55-3.65Q346.55-4.3 346.3-4.88 346.05-5.45 346.75-5.45L346.75-5.45Q347-5.45 347.25-4.88 347.5-4.3 347.5-3.5L347.5-3.5Q347.5-1.5 345.6-0.2 343.7 1.1 340.7 1.1L340.7 1.1Q337.4 1.1 335.25-0.15L335.25-0.15Q334.4-0.6 332.5-2.05ZM351 0.65L351 0.65Q350.45 0.65 350 0.5L350 0.5Q346.8-0.4 346.8-3.1L346.8-3.1Q346.8-6.6 351.2-11.2 355.6-15.8 359.1-15.8L359.1-15.8Q360.25-15.8 360.97-15.18 361.7-14.55 361.7-13.65L361.7-13.65Q361.7-10.85 357.47-8.3 353.25-5.75 350.6-5.75L350.6-5.75Q350.2-5.75 349.9-5.85L349.9-5.85Q349.15-4.5 349.15-3L349.15-3Q349.15-0.4 351.62-0.4 354.1-0.4 358.05-3.75L358.05-3.75Q361.1-6.2 363.25-8.95L363.25-8.95Q363.7-9.55 364.02-9.55 364.35-9.55 364.35-9.25 364.35-8.95 363.95-8.4L363.95-8.4Q361.25-4.85 357.45-2.1 353.65 0.65 351 0.65ZM360.45-13.75L360.45-13.75Q360.45-14.35 359.17-14.35 357.9-14.35 355.55-12.4L355.55-12.4Q352.4-9.8 350.65-6.95L350.65-6.95Q350.95-6.85 351.3-6.85L351.3-6.85Q353.2-6.85 356.37-8.88 359.55-10.9 360.35-13.3L360.35-13.3Q360.45-13.55 360.45-13.75ZM373.74 0.65L373.74 0.65Q373.19 0.65 372.74 0.5L372.74 0.5Q369.54-0.4 369.54-3.1L369.54-3.1Q369.54-6.6 373.94-11.2 378.34-15.8 381.84-15.8L381.84-15.8Q382.99-15.8 383.72-15.18 384.44-14.55 384.44-13.65L384.44-13.65Q384.44-10.85 380.22-8.3 375.99-5.75 373.34-5.75L373.34-5.75Q372.94-5.75 372.64-5.85L372.64-5.85Q371.89-4.5 371.89-3L371.89-3Q371.89-0.4 374.37-0.4 376.84-0.4 380.79-3.75L380.79-3.75Q383.84-6.2 385.99-8.95L385.99-8.95Q386.44-9.55 386.77-9.55 387.09-9.55 387.09-9.25 387.09-8.95 386.69-8.4L386.69-8.4Q383.99-4.85 380.19-2.1 376.39 0.65 373.74 0.65ZM383.19-13.75L383.19-13.75Q383.19-14.35 381.92-14.35 380.64-14.35 378.29-12.4L378.29-12.4Q375.14-9.8 373.39-6.95L373.39-6.95Q373.69-6.85 374.04-6.85L374.04-6.85Q375.94-6.85 379.12-8.88 382.29-10.9 383.09-13.3L383.09-13.3Q383.19-13.55 383.19-13.75ZM404.44-24.45L404.44-24.45Q404.44-22.9 403.54-22.9L403.54-22.9Q403.29-22.9 403.04-23.3L403.04-23.3Q402.59-24.1 401.54-24.1L401.54-24.1Q399.24-24.1 397.24-20.8L397.24-20.8Q396.84-20.15 394.74-16.1L394.74-16.1 395.34-16.1Q400.79-16.1 402.59-16.25L402.59-16.25Q402.79-16.2 402.79-16.05L402.79-16.05Q402.79-15.65 399.24-14.95L399.24-14.95Q395.89-14.4 393.74-14L393.74-14Q392.19-10.8 389.99-6.4L389.99-6.4Q385.49 2 384.04 4.05L384.04 4.05Q379.69 10.25 375.54 10.25L375.54 10.25Q374.09 10.25 373.02 9.03 371.94 7.8 371.89 6.3L371.89 6.3Q372.04 5.7 372.34 5.7L372.34 5.7Q372.49 5.7 372.54 6.05L372.54 6.05Q372.84 7.35 373.54 8.05 374.24 8.75 374.99 8.75L374.99 8.75Q379.24 8.75 382.74 3.5L382.74 3.5Q384.74 0.5 388.19-7.3L388.19-7.3 390.89-13.8Q385.89-13.85 385.89-15L385.89-15Q385.89-15.5 386.37-15.85 386.84-16.2 387.19-16.2L387.19-16.2 391.89-16.1Q396.79-27 400.89-27L400.89-27Q402.44-27 404.04-25.5L404.04-25.5Q404.44-25.1 404.44-24.45ZM416.54-24.45L416.54-24.45Q416.54-22.9 415.64-22.9L415.64-22.9Q415.39-22.9 415.14-23.3L415.14-23.3Q414.69-24.1 413.64-24.1L413.64-24.1Q411.34-24.1 409.34-20.8L409.34-20.8Q408.94-20.15 406.84-16.1L406.84-16.1 407.44-16.1Q412.89-16.1 414.69-16.25L414.69-16.25Q414.89-16.2 414.89-16.05L414.89-16.05Q414.89-15.65 411.34-14.95L411.34-14.95Q407.99-14.4 405.84-14L405.84-14Q404.29-10.8 402.09-6.4L402.09-6.4Q397.59 2 396.14 4.05L396.14 4.05Q391.79 10.25 387.64 10.25L387.64 10.25Q386.19 10.25 385.11 9.03 384.04 7.8 383.99 6.3L383.99 6.3Q384.14 5.7 384.44 5.7L384.44 5.7Q384.59 5.7 384.64 6.05L384.64 6.05Q384.94 7.35 385.64 8.05 386.34 8.75 387.09 8.75L387.09 8.75Q391.34 8.75 394.84 3.5L394.84 3.5Q396.84 0.5 400.29-7.3L400.29-7.3 402.99-13.8Q397.99-13.85 397.99-15L397.99-15Q397.99-15.5 398.46-15.85 398.94-16.2 399.29-16.2L399.29-16.2 403.99-16.1Q408.89-27 412.99-27L412.99-27Q414.54-27 416.14-25.5L416.14-25.5Q416.54-25.1 416.54-24.45ZM419.09-20.4Q419.84-20.4 420.51-19.93 421.19-19.45 421.19-18.8 421.19-18.15 420.56-17.68 419.94-17.2 419.19-17.2 418.44-17.2 417.81-17.75 417.19-18.3 417.19-19L417.19-19Q417.19-20.4 419.09-20.4L419.09-20.4ZM410.04 0.55L410.04 0.55Q407.49 0.55 407.49-2.75L407.49-2.75Q407.49-5.45 410.44-10.23 413.39-15 415.19-15.05L415.19-15.05Q415.69-15.05 416.31-14.65 416.94-14.25 416.94-13.85L416.94-13.85Q416.69-13.5 416.34-13.08 415.99-12.65 415.59-12.15 415.19-11.65 414.49-10.73 413.79-9.8 413.14-8.95L413.14-8.95Q409.39-4.1 409.39-2.27 409.39-0.45 410.64-0.45L410.64-0.45Q411.69-0.45 413.49-1.6L413.49-1.6Q417.69-4.2 420.14-7.3L420.14-7.3Q421.04-8.45 421.36-8.45 421.69-8.45 421.69-8.05 421.69-7.65 420.54-6.45 419.39-5.25 418.71-4.55 418.04-3.85 417.79-3.63 417.54-3.4 416.86-2.78 416.19-2.15 415.84-1.9 415.49-1.65 414.84-1.15 414.19-0.65 413.69-0.43 413.19-0.2 412.54 0.1L412.54 0.1Q411.49 0.55 410.04 0.55ZM423.33 0.65L423.33 0.65Q422.78 0.65 422.33 0.5L422.33 0.5Q419.13-0.4 419.13-3.1L419.13-3.1Q419.13-6.6 423.53-11.2 427.93-15.8 431.43-15.8L431.43-15.8Q432.58-15.8 433.31-15.18 434.03-14.55 434.03-13.48 434.03-12.4 433.38-11.23 432.73-10.05 431.43-10.05 430.13-10.05 430.13-10.85L430.13-10.85Q430.13-11.4 430.81-12.53 431.48-13.65 431.48-13.73 431.48-13.8 431.33-13.8L431.33-13.8Q429.93-13.65 427.51-11.8 425.08-9.95 424.18-8.7L424.18-8.7 422.23-5.85Q421.73-5.05 421.51-3.95 421.28-2.85 421.28-2.3 421.28-1.75 421.91-1.05 422.53-0.35 423.68-0.35L423.68-0.35Q426.18-0.35 429.88-3.28 433.58-6.2 435.58-8.85L435.58-8.85Q435.83-9.15 436.18-9.15 436.53-9.15 436.53-8.95 436.53-8.75 436.28-8.45L436.28-8.45Q433.53-4.8 429.71-2.08 425.88 0.65 423.33 0.65ZM444.53-20.4Q445.28-20.4 445.96-19.93 446.63-19.45 446.63-18.8 446.63-18.15 446.01-17.68 445.38-17.2 444.63-17.2 443.88-17.2 443.26-17.75 442.63-18.3 442.63-19L442.63-19Q442.63-20.4 444.53-20.4L444.53-20.4ZM435.48 0.55L435.48 0.55Q432.93 0.55 432.93-2.75L432.93-2.75Q432.93-5.45 435.88-10.23 438.83-15 440.63-15.05L440.63-15.05Q441.13-15.05 441.76-14.65 442.38-14.25 442.38-13.85L442.38-13.85Q442.13-13.5 441.78-13.08 441.43-12.65 441.03-12.15 440.63-11.65 439.93-10.73 439.23-9.8 438.58-8.95L438.58-8.95Q434.83-4.1 434.83-2.27 434.83-0.45 436.08-0.45L436.08-0.45Q437.13-0.45 438.93-1.6L438.93-1.6Q443.13-4.2 445.58-7.3L445.58-7.3Q446.48-8.45 446.81-8.45 447.13-8.45 447.13-8.05 447.13-7.65 445.98-6.45 444.83-5.25 444.16-4.55 443.48-3.85 443.23-3.63 442.98-3.4 442.31-2.78 441.63-2.15 441.28-1.9 440.93-1.65 440.28-1.15 439.63-0.65 439.13-0.43 438.63-0.2 437.98 0.1L437.98 0.1Q436.93 0.55 435.48 0.55ZM447.53 0.65L447.53 0.65Q446.98 0.65 446.53 0.5L446.53 0.5Q443.33-0.4 443.33-3.1L443.33-3.1Q443.33-6.6 447.73-11.2 452.13-15.8 455.63-15.8L455.63-15.8Q456.78-15.8 457.5-15.18 458.23-14.55 458.23-13.65L458.23-13.65Q458.23-10.85 454-8.3 449.78-5.75 447.13-5.75L447.13-5.75Q446.73-5.75 446.43-5.85L446.43-5.85Q445.68-4.5 445.68-3L445.68-3Q445.68-0.4 448.15-0.4 450.63-0.4 454.58-3.75L454.58-3.75Q457.63-6.2 459.78-8.95L459.78-8.95Q460.23-9.55 460.55-9.55 460.88-9.55 460.88-9.25 460.88-8.95 460.48-8.4L460.48-8.4Q457.78-4.85 453.98-2.1 450.18 0.65 447.53 0.65ZM456.98-13.75L456.98-13.75Q456.98-14.35 455.7-14.35 454.43-14.35 452.08-12.4L452.08-12.4Q448.93-9.8 447.18-6.95L447.18-6.95Q447.48-6.85 447.83-6.85L447.83-6.85Q449.73-6.85 452.9-8.88 456.08-10.9 456.88-13.3L456.88-13.3Q456.98-13.55 456.98-13.75ZM465.88-15.8L465.88-15.8Q467.23-15.8 467.23-14.75L467.23-14.75Q467.23-14.45 467.08-14.15L467.08-14.15Q462.58-7.9 461.68-4.7L461.68-4.7Q473.33-16.35 475.83-16.35L475.83-16.35Q476.08-16.4 476.28-16.4L476.28-16.4Q477.68-16.4 477.68-15.15L477.68-15.15Q477.68-14.9 477.58-14.65 477.48-14.4 475.58-11.95L475.58-11.95Q473.38-9.35 471.85-6.95 470.33-4.55 470.33-2.95 470.33-1.35 471.03-1.35L471.03-1.35Q473.23-1.35 478.68-7.4L478.68-7.4Q478.78-7.5 479.03-7.85L479.03-7.85Q479.78-8.75 479.93-8.75 480.08-8.75 480.08-8.25 480.08-7.75 479.38-6.95L479.38-6.95Q473.18 0.1 470.58 0.1L470.58 0.1Q468.13 0.1 468.13-2.6 468.13-5.3 470.13-8.8L470.13-8.8 473.33-14Q469.93-11.5 467.28-8.53 464.63-5.55 462.45-2.75 460.28 0.05 459.93 0.05L459.93 0.05Q459.18 0.05 458.75-0.58 458.33-1.2 458.33-2.13 458.33-3.05 458.98-4.6 459.63-6.15 460.63-8.35L460.63-8.35 457.63-5.2Q456.53-4.1 456.25-4.1 455.98-4.1 455.98-4.42 455.98-4.75 456.38-5.15L456.38-5.15Q458.23-7 459.58-8.7L459.58-8.7Q460.88-10.4 464.93-15.2L464.93-15.2Q465.38-15.8 465.88-15.8ZM481.77 0.65L481.77 0.65Q481.22 0.65 480.77 0.5L480.77 0.5Q477.57-0.4 477.57-3.1L477.57-3.1Q477.57-6.6 481.97-11.2 486.37-15.8 489.87-15.8L489.87-15.8Q491.02-15.8 491.75-15.18 492.47-14.55 492.47-13.48 492.47-12.4 491.82-11.23 491.17-10.05 489.87-10.05 488.57-10.05 488.57-10.85L488.57-10.85Q488.57-11.4 489.25-12.53 489.92-13.65 489.92-13.73 489.92-13.8 489.77-13.8L489.77-13.8Q488.37-13.65 485.95-11.8 483.52-9.95 482.62-8.7L482.62-8.7 480.67-5.85Q480.17-5.05 479.95-3.95 479.72-2.85 479.72-2.3 479.72-1.75 480.35-1.05 480.97-0.35 482.12-0.35L482.12-0.35Q484.62-0.35 488.32-3.28 492.02-6.2 494.02-8.85L494.02-8.85Q494.27-9.15 494.62-9.15 494.97-9.15 494.97-8.95 494.97-8.75 494.72-8.45L494.72-8.45Q491.97-4.8 488.15-2.08 484.32 0.65 481.77 0.65ZM489.32 5.8L489.32 5.8Q491.72 8.8 493.47 8.8L493.47 8.8Q496.32 8.8 499.62 4.25L499.62 4.25Q502.02 0.9 504.32-4.2L504.32-4.2 506.22-8.8 498.87-3.05Q495.47-0.4 493.42-0.4L493.42-0.4Q492.32-0.4 491.67-1.15 491.02-1.9 491.02-2.85L491.02-2.85Q491.02-5 494.72-9.93 498.42-14.85 500.12-14.85 501.82-14.85 501.82-13.7L501.82-13.7Q501.82-13.25 497.4-8.53 492.97-3.8 492.97-2.15L492.97-2.15Q492.97-1.5 493.82-1.5L493.82-1.5Q495.42-1.5 500.25-5.25 505.07-9 507.52-11.45L507.52-11.45Q508.07-12.1 509.07-13.4L509.07-13.4Q510.02-14.5 511.17-14.5 512.32-14.5 512.32-13.4L512.32-13.4Q512.32-13.2 510.07-9.85 507.82-6.5 507.72-6.3L507.72-6.3Q506.17-3.3 502.97 2.45L502.97 2.45Q498.12 10.25 493.27 10.25L493.27 10.25Q491.67 10.25 490.47 8.88 489.27 7.5 489.32 5.8Z" opacity="1" transform="matrix(1,0,0,1,0,0)" fill="#000000" class="slogan-text-1" data-fill-palette-color="secondary" id="text-1"></path></svg></g></svg></g></svg></g></svg></g><g><svg viewBox="0 0 188.71412675085386 188.71412675085386" height="188.71412675085386" width="188.71412675085386"><g><svg></svg></g><g id="icon-0"><svg viewBox="0 0 188.71412675085386 188.71412675085386" height="188.71412675085386" width="188.71412675085386"><g><rect width="171.59006710123936" height="171.59006710123936" x="8.562029824807254" y="8.562029824807254" fill="#000000" data-fill-palette-color="accent"></rect><rect width="171.59006710123936" height="171.59006710123936" x="17.124059649614512" y="-3.552713678800501e-15" fill="#000000" opacity="0.5" data-fill-palette-color="accent"></rect></g><g transform="matrix(1,0,0,1,33.51087160779153,24.462942356592166)"><svg viewBox="0 0 121.6923835352708 139.78824203766953" height="139.78824203766953" width="121.6923835352708"><g><svg xmlns="http://www.w3.org/2000/svg" xmlns:xlink="http://www.w3.org/1999/xlink" version="1.1" x="0" y="0" viewBox="8.357015265292384 2.1910000000000034 83.240935372285 95.61900000003224" enable-background="new 0 0 100 100" xml:space="preserve" height="139.78824203766953" width="121.6923835352708" class="icon-dxe-0" data-fill-palette-color="quaternary" id="dxe-0"><g fill="#2d1b81" data-fill-palette-color="quaternary"><path d="M50 12.36C32.43 12.36 18.14 26.65 18.14 44.21 18.14 57.46 26.27 68.84 37.79 73.64V82.02A3.86 3.86 0 0 0 41.04 85.831V93.951C41.04 96.081 42.77 97.81 44.9 97.81H55.1A3.87 3.87 0 0 0 58.97 93.951V85.831A3.86 3.86 0 0 0 62.21 82.02V73.64C73.74 68.84 81.86 57.46 81.86 44.21 81.86 26.65 67.57 12.36 50 12.36M67.49 33.42L44.7 56.21A0.84 0.84 0 0 1 44.1 56.46C43.88 56.46 43.66 56.37 43.5 56.21L32.51 45.22A0.85 0.85 0 0 1 32.51 44.02C32.84 43.69 33.38 43.69 33.71 44.02L44.1 54.41 66.29 32.22C66.62 31.89 67.16 31.89 67.49 32.22S67.82 33.09 67.49 33.42M57.27 93.95C57.27 95.139 56.3 96.11 55.1 96.11H44.9C43.7 96.11 42.73 95.139 42.73 93.95V93.21H50C50.47 93.21 50.85 92.83 50.85 92.36A0.85 0.85 0 0 0 50 91.509H42.73V90.259H50A0.85 0.85 0 1 0 50 88.56H42.73V85.88H57.27zM60.51 82.02C60.51 83.22 59.54 84.191 58.35 84.191H41.65C40.46 84.191 39.49 83.22 39.49 82.02V74.29A31.8 31.8 0 0 0 50 76.07C53.68 76.07 57.22 75.44 60.51 74.29z" fill="#ffffff" data-fill-palette-color="quaternary"></path><path d="M50 8.686A0.85 0.85 0 0 0 50.849 7.837V3.04A0.848 0.848 0 1 0 49.151 3.04V7.837C49.151 8.307 49.532 8.686 50 8.686" fill="#ffffff" data-fill-palette-color="quaternary"></path><path d="M36.687 10.335A0.84 0.84 0 0 0 37.773 10.842 0.85 0.85 0 0 0 38.281 9.755L36.64 5.247A0.85 0.85 0 0 0 35.044 5.828z" fill="#ffffff" data-fill-palette-color="quaternary"></path><path d="M25.826 16.945A0.849 0.849 0 1 0 27.125 15.854L24.041 12.18A0.847 0.847 0 1 0 22.742 13.27z" fill="#ffffff" data-fill-palette-color="quaternary"></path><path d="M13.728 24.473L17.883 26.871A0.86 0.86 0 0 0 18.308 26.984 0.85 0.85 0 0 0 18.731 25.4L14.576 23.003C14.17 22.77 13.651 22.908 13.416 23.315S13.321 24.238 13.728 24.473" fill="#ffffff" data-fill-palette-color="quaternary"></path><path d="M9.088 38.083L13.812 38.916A0.849 0.849 0 0 0 14.107 37.245L9.383 36.412A0.849 0.849 0 0 0 9.088 38.083" fill="#ffffff" data-fill-palette-color="quaternary"></path><path d="M14.795 50.643A0.85 0.85 0 0 0 13.812 49.954L9.088 50.787A0.848 0.848 0 1 0 9.383 52.456L14.107 51.623A0.844 0.844 0 0 0 14.795 50.643" fill="#ffffff" data-fill-palette-color="quaternary"></path><path d="M17.882 61.998L13.728 64.396A0.85 0.85 0 0 0 14.577 65.867L18.731 63.469A0.85 0.85 0 0 0 19.042 62.311 0.85 0.85 0 0 0 17.882 61.998" fill="#ffffff" data-fill-palette-color="quaternary"></path><path d="M25.826 71.924L22.742 75.6A0.846 0.846 0 0 0 23.391 76.992 0.85 0.85 0 0 0 24.041 76.689L27.124 73.015A0.847 0.847 0 1 0 25.826 71.924" fill="#ffffff" data-fill-palette-color="quaternary"></path><path d="M74.174 71.924A0.85 0.85 0 0 0 72.978 71.82 0.85 0.85 0 0 0 72.874 73.015L75.958 76.689A0.85 0.85 0 0 0 77.153 76.794 0.846 0.846 0 0 0 77.257 75.6z" fill="#ffffff" data-fill-palette-color="quaternary"></path><path d="M86.272 64.396L82.119 61.997A0.85 0.85 0 0 0 81.271 63.469L85.425 65.866A0.85 0.85 0 1 0 86.272 64.396" fill="#ffffff" data-fill-palette-color="quaternary"></path><path d="M90.913 50.787L86.188 49.954A0.848 0.848 0 1 0 85.893 51.624L90.618 52.457A0.85 0.85 0 0 0 90.913 50.787" fill="#ffffff" data-fill-palette-color="quaternary"></path><path d="M85.204 38.227A0.85 0.85 0 0 0 86.188 38.915L90.913 38.082A0.848 0.848 0 0 0 90.619 36.412L85.894 37.245A0.85 0.85 0 0 0 85.204 38.227" fill="#ffffff" data-fill-palette-color="quaternary"></path><path d="M81.694 26.984A0.86 0.86 0 0 0 82.119 26.871L86.272 24.473A0.849 0.849 0 1 0 85.425 23.002L81.271 25.4A0.85 0.85 0 0 0 80.959 26.56 0.85 0.85 0 0 0 81.694 26.984" fill="#ffffff" data-fill-palette-color="quaternary"></path><path d="M73.524 17.249A0.84 0.84 0 0 0 74.173 16.945L77.256 13.269C77.559 12.911 77.512 12.374 77.152 12.074S76.257 11.82 75.957 12.178L72.873 15.854A0.85 0.85 0 0 0 73.524 17.249" fill="#ffffff" data-fill-palette-color="quaternary"></path><path d="M62.226 10.844A0.847 0.847 0 0 0 63.314 10.335L64.956 5.826A0.847 0.847 0 1 0 63.361 5.246L61.718 9.755A0.854 0.854 0 0 0 62.226 10.844" fill="#ffffff" data-fill-palette-color="quaternary"></path></g></svg></g></svg></g></svg></g></svg></g></svg></g><defs></defs></svg><rect width="395.52" height="125.2480685965762" fill="none" stroke="none" visibility="hidden"></rect></g></svg></g></svg>